# xmcd
#
# Track frame offsets:
#	150
#	23676
#	41212
#	58079
#	77565
#	112514
#	135260
#	161572
#	180250
#	195334
#	213817
#	232467
#	255018
#	265839
#
# Disc length: 4427 seconds
#
# Revision: 1
# Processed by: cddbd v1.4PL0 Copyright (c) Steve Scherf et al.
# Submitted via: audiograbber 1.81.03
#
DISCID=a511490e
DTITLE=Brad Webb - Bradd Webb and Blind Mississippi Morris
DYEAR=2002
DGENRE=Blues
TTITLE0=Hound Dog
TTITLE1=Bad To Worse
TTITLE2=Gimmie Gimmie
TTITLE3=Love Jones
TTITLE4=Juke
TTITLE5=This Morniong Before Sunrise
TTITLE6=Mysterious Woman Blues
TTITLE7=Singing The Blues
TTITLE8=Greasey
TTITLE9=Country Days
TTITLE10=Just A Woman
TTITLE11=Sneakin and Peekin
TTITLE12=Sunday Morning
TTITLE13=Rosie Mae
EXTD=
EXTT0=
EXTT1=
EXTT2=
EXTT3=
EXTT4=
EXTT5=
EXTT6=
EXTT7=
EXTT8=
EXTT9=
EXTT10=
EXTT11=
EXTT12=
EXTT13=
PLAYORDER=
